<?xml version="1.0" encoding="iso-8859-1"?>
<!-- Generator: Adobe Illustrator 19.0.0, SVG Export Plug-In . SVG Version: 6.00 Build 0)  -->
<svg version="1.1" id="Capa_1" xmlns="http://www.w3.org/2000/svg" xmlns:xlink="http://www.w3.org/1999/xlink" x="0px" y="0px"
	 viewBox="0 0 512 512" style="enable-background:new 0 0 512 512;" xml:space="preserve">
<path style="fill:#ECEDF8;" d="M497,76H15C6.716,76,0,82.716,0,91v380c0,8.284,6.716,15,15,15h482c8.284,0,15-6.716,15-15V91
	C512,82.716,505.284,76,497,76z"/>
<path style="fill:#D6D8F6;" d="M497,76H256v410h241c8.284,0,15-6.716,15-15V91C512,82.716,505.284,76,497,76z"/>
<path style="fill:#0B4EB1;" d="M146,156c-35.841,0-65-29.159-65-65s29.159-65,65-65s65,29.159,65,65c0,8.284-6.716,15-15,15
	s-15-6.716-15-15c0-19.299-15.701-35-35-35s-35,15.701-35,35s15.701,35,35,35c8.284,0,15,6.716,15,15S154.284,156,146,156z"/>
<path style="fill:#00C2FF;" d="M445,178c-41.434,0-336.287,0-378,0c-8.284,0-15,6.716-15,15c0,75.738,0,139.319,0,226
	c0,8.284,6.716,15,15,15c71.703,0,296.145,0,378,0c8.284,0,15-6.716,15-15c0-33.087,0-193.015,0-226
	C460,184.716,453.284,178,445,178z M334.5,208v45.33H270V208H334.5z M270,283.33h64.5v45.34H270V283.33z M240,328.67h-64.5v-45.34
	H240V328.67z M240,208v45.33h-64.5V208H240z M82,208h63.5v45.33H82V208z M82,283.33h63.5v45.34H82V283.33z M82,404v-45.33h63.5V404
	H82z M175.5,404v-45.33H240V404H175.5z M270,404v-45.33h64.5V404H270z M430,404h-65.5v-45.33H430V404z M430,328.67h-65.5v-45.34H430
	V328.67z M364.5,253.33V208H430v45.33H364.5z"/>
<rect x="173.18" y="76" style="fill:#ECEDF8;" width="40.824" height="40.824"/>
<path style="fill:#09489F;" d="M366,156c-35.841,0-65-29.159-65-65s29.159-65,65-65s65,29.159,65,65c0,8.284-6.716,15-15,15
	s-15-6.716-15-15c0-19.299-15.701-35-35-35s-35,15.701-35,35s15.701,35,35,35c8.284,0,15,6.716,15,15S374.284,156,366,156z"/>
<path style="fill:#00B3F3;" d="M445,178c-20.726,0-104.858,0-189,0v256c74.068,0,148.762,0,189,0c8.284,0,15-6.716,15-15
	c0-33.087,0-193.015,0-226C460,184.716,453.284,178,445,178z M334.5,404H270v-45.33h64.5V404z M334.5,328.67H270v-45.34h64.5V328.67
	z M334.5,253.33H270V208h64.5V253.33z M430,404h-65.5v-45.33H430V404z M430,328.67h-65.5v-45.34H430V328.67z M430,253.33h-65.5V208
	H430V253.33z"/>
<rect x="394" y="76" style="fill:#D6D8F6;" width="40.824" height="40.824"/>
<g>
</g>
<g>
</g>
<g>
</g>
<g>
</g>
<g>
</g>
<g>
</g>
<g>
</g>
<g>
</g>
<g>
</g>
<g>
</g>
<g>
</g>
<g>
</g>
<g>
</g>
<g>
</g>
<g>
</g>
</svg>
