<?xml version="1.0" encoding="iso-8859-1"?>
<!-- Generator: Adobe Illustrator 19.0.0, SVG Export Plug-In . SVG Version: 6.00 Build 0)  -->
<svg version="1.1" id="Capa_1" xmlns="http://www.w3.org/2000/svg" xmlns:xlink="http://www.w3.org/1999/xlink" x="0px" y="0px"
	 viewBox="0 0 512 512" style="enable-background:new 0 0 512 512;" xml:space="preserve">
<path style="fill:#FEDBAB;" d="M421.009,325.6V286c0-24.901-20.099-45-45-45c-6,0-11.7,1.199-16.8,3.3
	c-5.099-19.2-22.5-33.3-43.2-33.3c-6,0-11.7,1.199-16.8,3.3c-5.099-19.2-22.5-33.3-43.2-33.3c-5.4,0-10.201,1.199-15,2.699V45
	c0-24.901-20.099-45-45-45s-45,20.099-45,45v196h-15c-24.901,0-45,20.099-45,45v22.8c0,72.599,22.5,118.299,51.301,174.399
	l10.199,20.4c2.701,5.101,7.8,8.401,13.5,8.401h210c5.7,0,10.8-3.3,13.5-8.401C421.309,439.999,421.309,393.699,421.009,325.6z"/>
<path style="fill:#FEC478;" d="M389.509,503.599c-2.701,5.101-7.8,8.401-13.5,8.401h-180V0c24.901,0,45,20.099,45,45v138.699
	c4.799-1.5,9.6-2.699,15-2.699c20.7,0,38.101,14.099,43.2,33.3c5.099-2.1,10.8-3.3,16.8-3.3c20.7,0,38.101,14.099,43.2,33.3
	c5.099-2.1,10.8-3.3,16.8-3.3c24.901,0,45,20.099,45,45v39.6C421.309,393.699,421.309,439.999,389.509,503.599z"/>
<path style="fill:#E50027;" d="M294.41,122.399l-90-60c-2.401-1.8-5.402-2.399-8.401-2.399s-6,0.599-8.401,2.399l-90,60
	c-6.899,4.801-8.699,14.101-4.199,21c4.799,6.901,14.099,8.701,21,4.2l81.599-54.6l81.599,54.6c7.202,4.501,16.501,2.401,21-4.2
	C303.109,136.5,301.309,127.2,294.41,122.399z"/>
<path style="fill:#FD003A;" d="M256.009,30c-5.156,0-10.21,0.864-17.388,3.662l-42.686,24.15l-45.132-24.985
	c-1.113-0.615-2.314-1.084-3.545-1.406C119.529,24.36,91.009,46.406,91.009,75c0,24.814,20.186,45,45,45
	c3.779,0,7.573-0.483,11.25-1.421c1.23-0.322,2.432-0.791,3.545-1.406l45.163-25.003l45.013,25.252
	c4.819,1.714,9.873,2.578,15.029,2.578c24.814,0,45-20.186,45-45S280.823,30,256.009,30z M138.235,89.839
	c-8.789,1.333-17.212-5.815-17.227-14.839c0-8.276,6.724-15,15-15c0.747,0,1.494,0.059,2.227,0.161L165.042,75L138.235,89.839z
	 M256.009,90c-1.758,0-3.384-0.293-2.622,0.234L226.36,74.941l24.668-14.092c9.126-3.267,19.98,4.131,19.98,14.15
	C271.009,83.276,264.285,90,256.009,90z"/>
<path style="fill:#C1001F;" d="M277.608,147.599c7.202,4.501,16.501,2.401,21-4.2c4.501-6.899,2.701-16.199-4.199-21l-90-60
	c-2.401-1.8-5.402-2.399-8.401-2.399v32.999L277.608,147.599z"/>
<path style="fill:#E50027;" d="M256.009,30c-5.156,0-10.21,0.864-17.388,3.662L196.009,57.77v34.424l44.971,25.228
	c4.819,1.714,9.873,2.578,15.029,2.578c24.814,0,45-20.186,45-45S280.823,30,256.009,30z M256.009,90
	c-1.758,0-3.384-0.293-2.622,0.234L226.36,74.941l24.668-14.092c9.126-3.267,19.98,4.131,19.98,14.15
	C271.009,83.276,264.285,90,256.009,90z"/>
<g>
</g>
<g>
</g>
<g>
</g>
<g>
</g>
<g>
</g>
<g>
</g>
<g>
</g>
<g>
</g>
<g>
</g>
<g>
</g>
<g>
</g>
<g>
</g>
<g>
</g>
<g>
</g>
<g>
</g>
</svg>
