<?xml version="1.0" encoding="iso-8859-1"?>
<!-- Generator: Adobe Illustrator 21.0.0, SVG Export Plug-In . SVG Version: 6.00 Build 0)  -->
<svg xmlns="http://www.w3.org/2000/svg" xmlns:xlink="http://www.w3.org/1999/xlink" version="1.1" id="Capa_1" x="0px" y="0px" viewBox="0 0 512 512" style="enable-background:new 0 0 512 512;" xml:space="preserve" width="512" height="512">
<g>
	<path style="fill:#FCE36F;" d="M122.797,231.024c0,0-30.179-43.707-75.967-43.707C18.732,187.317,0,202.927,0,224.78   c0,31.22,34.341,54.114,53.073,54.114h46.829v-27.057c0-11.495,9.318-20.813,20.813-20.813H122.797z"/>
	<path style="fill:#FFBBCC;" d="M189.398,187.317V502c0,5.523,4.477,10,10,10h274.504c5.523,0,10-4.477,10-10V187.317H189.398z"/>
	<path style="fill:#FF99AA;" d="M189.398,187.317v21.151h250.263c11.046,0,20,8.954,20,20V512h14.241c5.523,0,10-4.477,10-10   V187.317H189.398z"/>
	<path style="fill:#FFBBCC;" d="M171.301,108.228H502c5.523,0,10,4.477,10,10v59.089c0,5.523-4.477,10-10,10H171.301   c-5.523,0-10-4.477-10-10v-59.089C161.301,112.705,165.778,108.228,171.301,108.228z"/>
	<path style="fill:#FF99AA;" d="M512,118.228v59.089c0,5.523-4.477,10-10,10h-14.241v-79.089H502   C507.523,108.228,512,112.705,512,118.228z"/>
	<path style="fill:#FCE36F;" d="M384,108.228h-95.74V82.439c0-11.046,8.954-20,20-20H364c11.046,0,20,8.954,20,20V108.228z"/>
	<path style="fill:#FFD939;" d="M363.187,62.439h-20.813c11.495,0,20.813,9.318,20.813,20.813v24.976H384V83.252   C384,71.757,374.682,62.439,363.187,62.439z"/>
	<path style="fill:#FCE36F;" d="M363.187,62.439c0,0,31.22-62.439,83.252-62.439c31.22,0,52.033,10.407,52.033,41.626   s-33.301,66.602-52.033,66.602H384V83.252C384,71.757,374.682,62.439,363.187,62.439L363.187,62.439z"/>
	<path style="fill:#FFD939;" d="M446.439,0c-2.99,0-5.907,0.215-8.758,0.604c24.403,2.597,39.977,14.022,39.977,41.022   c0,31.22-33.301,66.602-52.033,66.602h20.813c18.732,0,52.033-35.382,52.033-66.602S477.659,0,446.439,0z"/>
	<path style="fill:#FCE36F;" d="M309.073,62.439c0,0-31.22-62.439-83.252-62.439c-31.22,0-52.033,10.407-52.033,41.626   s33.301,66.602,52.033,66.602h62.439V83.252C288.26,71.757,297.578,62.439,309.073,62.439L309.073,62.439z"/>
	<path style="fill:#FFD939;" d="M225.821,0c-5.083,0-9.884,0.282-14.37,0.878c45.166,6.965,73.624,55.639,73.624,55.639   c-6.699,3.577-11.905,10.865-11.905,18.669v33.041h15.089V83.252c0-11.495,9.318-20.813,20.813-20.813   C309.073,62.439,277.854,0,225.821,0z"/>
	<rect x="288.26" y="108.228" style="fill:#FCE36F;" width="95.74" height="79.089"/>
	<rect x="304.217" y="187.317" style="fill:#FCE36F;" width="63.827" height="324.683"/>
	<path style="fill:#BDFFFA;" d="M266.813,357.984H10c-5.523,0-10-4.477-10-10v-59.089c0-5.523,4.477-10,10-10h256.813   c5.523,0,10,4.477,10,10v59.089C276.813,353.507,272.336,357.984,266.813,357.984z"/>
	<path style="fill:#93F9EF;" d="M276.813,288.894v59.089c0,5.523-4.477,10-10,10h-14.241v-79.089h14.241   C272.336,278.894,276.813,283.371,276.813,288.894z"/>
	<path style="fill:#BDFFFA;" d="M239.496,512H37.317c-5.523,0-10-4.477-10-10V357.984h222.179V502   C249.496,507.523,245.019,512,239.496,512z"/>
	<path style="fill:#93F9EF;" d="M249.522,357.984H27.317v21.151h176.897c11.046,0,20,8.954,20,20V512h15.283   c5.522,0,9.999-4.476,10-9.998L249.522,357.984z"/>
	<rect x="99.902" y="278.894" style="fill:#FCE36F;" width="77.008" height="79.089"/>
	<rect x="152.67" y="278.894" style="fill:#FFD939;" width="24.241" height="79.089"/>
	<rect x="109.789" y="357.984" style="fill:#FCE36F;" width="57.236" height="154.016"/>
	<path style="fill:#FFD939;" d="M46.83,187.32c-5.14,0-9.96,0.52-14.42,1.51c37.43,7.7,62.87,40.22,62.87,40.22   s-8.39,4.7-8.76,20.79l-15.99-8.99c-3.63-2.08-8.26-0.83-10.34,2.8s-0.83,8.25,2.8,10.34l23.51,13.36v11.54h13.4v-3.93v-17.6v-6.34   c0-11.04,8.96-20,20-20h2.9C122.8,231.02,92.62,187.32,46.83,187.32z"/>
	<path style="fill:#FCE36F;" d="M176.911,278.894H99.902v-27.87c0-11.046,8.954-20,20-20h37.008c11.046,0,20,8.954,20,20V278.894z"/>
	<path style="fill:#FFD939;" d="M156.098,231.024h-24.241c11.495,0,20.813,9.318,20.813,20.813v27.057h24.241v-27.057   C176.911,240.343,167.592,231.024,156.098,231.024z"/>
	<path style="fill:#FCE36F;" d="M154.016,231.024c0,0,30.179-43.707,75.967-43.707c28.098,0,46.829,15.61,46.829,37.463   c0,31.22-34.341,54.114-53.073,54.114h-46.829v-27.057c0-11.495-9.318-20.813-20.813-20.813H154.016z"/>
	<path style="fill:#FFD939;" d="M229.984,187.317c-3.581,0-7.067,0.268-10.451,0.76C241.777,191.444,256,205.74,256,224.78   c0,31.22-34.341,54.114-53.073,54.114h20.813c18.732,0,53.073-22.894,53.073-54.114   C276.813,202.927,258.081,187.317,229.984,187.317z"/>
	<rect x="363.187" y="108.228" style="fill:#FFD939;" width="20.813" height="79.089"/>
	<path style="fill:#FFD939;" d="M368.043,187.317L368.043,187.317H347.23h-43.013v21.151h33.013c5.523,0,10,4.477,10,10V512h20.813   V208.468h0V187.317z"/>
	<path style="fill:#FFD939;" d="M146.211,357.984h-36.423v21.151h26.423c5.523,0,10,4.477,10,10V512h20.813V379.135v-21.151H146.211   z"/>
	<path style="fill:#FFD939;" d="M426.447,72.001l-38.66,26.289L384,100.879v7.349h16.088l4.733-3.202l30.144-20.498   c3.459-2.353,4.357-7.063,2.004-10.522C434.617,70.546,429.907,69.649,426.447,72.001z"/>
	<path style="fill:#FFD939;" d="M225.821,0c-5.083,0-9.884,0.282-14.37,0.878c45.166,6.965,73.624,55.639,73.624,55.639   c-6.699,3.577-11.905,10.865-11.905,18.669v18.641l-32.099-21.827c-3.46-2.352-8.17-1.454-10.522,2.004   c-2.352,3.459-1.455,8.17,2.004,10.522l35.132,23.7h5.485h4.197h10.892V83.252c0-11.495,9.318-20.813,20.813-20.813   C309.073,62.439,277.854,0,225.821,0z"/>
	<path style="fill:#FFD939;" d="M213.821,253.986c3.628-2.082,4.882-6.711,2.8-10.339c-2.082-3.628-6.711-4.881-10.339-2.8   l-34.606,19.466v10.331v7.294L213.821,253.986z"/>
</g>















</svg>
