<svg id="Capa_1" enable-background="new 0 0 512 512" height="512" viewBox="0 0 512 512" width="512" xmlns="http://www.w3.org/2000/svg"><path d="m377 166h-31c-37.237 0-73.186 15.606-98.628 42.817-2.598 2.779-4.043 6.44-4.043 10.245v201.938c0 8.284 6.716 15 15 15h238.671c8.284 0 15-6.716 15-15v-120c0-74.439-60.561-135-135-135z" fill="#922791"/><path d="m512 301v120c0 8.28-6.72 15-15 15h-136v-270h16c15.29 0 30 2.56 43.72 7.27 53.05 18.2 91.28 68.58 91.28 127.73z" fill="#56007d"/><path d="m166 166h-31c-74.439 0-135 60.561-135 135v120c0 8.284 6.716 15 15 15h271c8.284 0 15-6.716 15-15v-120c0-74.439-60.561-135-135-135z" fill="#fdbf00"/><path d="m301 301v120c0 8.28-6.72 15-15 15h-135v-270h15c15.56 0 30.52 2.65 44.44 7.52 52.67 18.41 90.56 68.6 90.56 127.48z" fill="#fe9022"/><circle cx="361" cy="106" fill="#e89058" r="90"/><path d="m451 106c0 26.73-11.71 50.78-30.28 67.27-15.89 14.14-36.82 22.73-59.72 22.73v-180c49.63 0 90 40.37 90 90z" fill="#d98249"/><path d="m256 305.422c-44.249-44.309-120-9.753-120 54.73 0 30.583 19.436 62.66 57.769 95.339 27.084 23.089 53.836 38.005 54.961 38.629 4.522 2.506 10.017 2.506 14.54 0 1.125-.624 27.877-15.54 54.961-38.629 38.333-32.678 57.769-64.755 57.769-95.339 0-64.647-75.85-98.947-120-54.73z" fill="#fe5570"/><path d="m376 360.15c0 30.59-19.44 62.66-57.77 95.34-27.08 23.09-53.83 38.01-54.96 38.63-2.26 1.26-4.77 1.88-7.27 1.88v-190.58c44.15-44.21 120-9.92 120 54.73z" fill="#e43852"/><circle cx="151" cy="106" fill="#ffece3" r="90"/><path d="m241 106c0 26.87-11.83 51.02-30.56 67.52-15.86 13.99-36.67 22.48-59.44 22.48v-180c49.63 0 90 40.37 90 90z" fill="#ffdccd"/></svg>